# xmcd
#
# Track frame offsets:
#	150
#	14261
#	27414
#	50827
#	71806
#	90625
#	102185
#	117411
#	144703
#	161282
#	175801
#	192396
#
# Disc length: 2797 seconds
#
# Revision: 1
# Processed by: cddbd v1.5PL3 Copyright (c) Steve Scherf et al.
# Submitted via: audiograbber 1.83.01
#
DISCID=a70aeb0c
DTITLE=Lou Rawls - Live!
DYEAR=1966
DGENRE=Blues
TTITLE0=Stormy Monday
TTITLE1=Southside Blues (Monologue)
TTITLE2=Tobacco Road
TTITLE3=St. James Infirmary
TTITLE4=The Shadow of Your Smile
TTITLE5=I'd Rather Drink Muddy Water
TTITLE6=Goin' To Chicago Blues
TTITLE7=In the Evening When the Sun Goes Down
TTITLE8=The Girl from Ipanema
TTITLE9=I Got It Bad and That Ain't Good
TTITLE10=Street Corner Hustler's Blues (Monologue)
TTITLE11=World of Trouble
EXTD=
EXTT0=
EXTT1=
EXTT2=
EXTT3=
EXTT4=
EXTT5=
EXTT6=
EXTT7=
EXTT8=
EXTT9=
EXTT10=
EXTT11=
PLAYORDER=
